<svg id="Layer_1" xmlns="http://www.w3.org/2000/svg" viewBox="0 0 422.2 71.5"><style>.st0{fill:#fbeeb8}.st1{fill:#005688;stroke:#d7d7d7;stroke-width:.25;stroke-miterlimit:10}</style><path class="st0" d="M0 0H422.2V71.5H0z"/><path class="st1" d="M0 0H35.5V71.5H0z"/><path class="st1" d="M35.2 0H70.7V71.5H35.2z"/><path class="st1" d="M70.3 0H105.8V71.5H70.3z"/><path class="st1" d="M105.5 0H141V71.5H105.5z"/><path class="st1" d="M140.6 0H176.1V71.5H140.6z"/><path class="st1" d="M175.8 0H211.3V71.5H175.8z"/><path class="st1" d="M210.9 0H246.4V71.5H210.9z"/><path class="st1" d="M246.1 0H281.6V71.5H246.1z"/><path class="st1" d="M281.2 0H316.7V71.5H281.2z"/><path class="st1" d="M316.4 0H351.9V71.5H316.4z"/><path class="st1" d="M351.5 0H387V71.5H351.5z"/></svg>