<svg id="Layer_1" xmlns="http://www.w3.org/2000/svg" viewBox="0 0 219 219"><style>.st0{fill:#fcefb9}.st1{fill:#005689}</style><path class="st0" d="M109.5 0C49 0 0 49 0 109.5S49 219 109.5 219 219 170 219 109.5 170 0 109.5 0zm0 193C63.4 193 26 155.6 26 109.5S63.4 26 109.5 26 193 63.4 193 109.5 155.6 193 109.5 193z"/><path class="st1" d="M109.5 0h-.6l-.2 26h.8c46.1 0 83.5 37.4 83.5 83.5S155.6 193 109.5 193c-30.3 0-56.9-16.2-71.5-40.4l-22.6 12.8c19.1 32.1 54.1 53.5 94.1 53.5C170 219 219 170 219 109.5 219 49 170 0 109.5 0z"/></svg>