<svg id="Layer_1" xmlns="http://www.w3.org/2000/svg" viewBox="0 0 218.9 219.3"><style>.st0{fill:#fcefb9}.st1{fill:#e3c426}.st2{fill:#005689}</style><path class="st0" d="M1.4 92.2C-8.3 151.9 32.3 208.1 92 217.8c59.7 9.7 115.9-30.9 125.6-90.6S186.7 11.3 127 1.7 11.1 32.5 1.4 92.2zm190.5 30.9c-7.4 45.5-50.3 76.4-95.8 69.1S19.7 141.9 27 96.4 77.3 20 122.8 27.3s76.5 50.3 69.1 95.8z"/><path class="st1" d="M126.9 1.4c-12.1-2-24.1-1.9-35.6.1L94 27.4c9.2-1.7 18.9-1.9 28.7-.3 45.5 7.4 76.4 50.3 69.1 95.8-7.4 45.5-50.3 76.4-95.8 69.1-30.5-4.9-54.4-25.8-64.7-52.8L9.7 154.9c14.7 32.1 44.6 56.6 82.1 62.7 59.7 9.7 115.9-30.9 125.6-90.6 9.7-59.6-30.8-115.9-90.5-125.6z"/><path class="st2" d="M1.4 92.2c0 .2-.1.4-.1.5L27 97.1c0-.3.1-.5.1-.8 7.4-45.5 50.3-76.4 95.8-69.1S199.3 77.5 192 123c-4.9 29.9-25.1 53.6-51.3 64.1l9 24.4c34.7-13.7 61.5-44.8 67.9-84.3C227.3 67.6 186.7 11.3 127 1.7S11.1 32.5 1.4 92.2z"/></svg>